<svg width="25" height="25" viewBox="0 0 25 25" fill="none" xmlns="http://www.w3.org/2000/svg">
<path d="M12.311 22.1555C17.834 22.1555 22.311 17.6785 22.311 12.1555C22.311 6.63252 17.834 2.15552 12.311 2.15552C6.788 2.15552 2.311 6.63252 2.311 12.1555C2.311 17.6785 6.788 22.1555 12.311 22.1555Z" stroke="white" stroke-width="1.5" stroke-linecap="round" stroke-linejoin="round"/>
<path d="M14.644 19.1555V17.2925C14.669 16.9825 14.626 16.6725 14.518 16.3795C14.4093 16.0863 14.2388 15.82 14.018 15.5985C16.111 15.3715 18.311 14.5985 18.311 11.0545C18.3091 10.1436 17.9501 9.26968 17.311 8.62051C17.6152 7.82861 17.5936 6.94854 17.251 6.17251C17.251 6.17251 16.464 5.94551 14.644 7.1335C13.1148 6.73036 11.5072 6.73036 9.97801 7.1335C8.15801 5.94551 7.37101 6.1735 7.37101 6.1735C7.02898 6.94897 7.00741 7.8282 7.31101 8.6195C6.66752 9.27349 6.30815 10.155 6.31101 11.0725C6.31101 14.5915 8.51101 15.3635 10.604 15.6165C10.3857 15.836 10.2166 16.0995 10.108 16.3895C10.0002 16.6773 9.95589 16.985 9.97801 17.2915V19.1555" stroke="white" stroke-width="1.5" stroke-linecap="round" stroke-linejoin="round"/>
<path d="M9.978 17.8575C7.978 18.4885 6.311 17.8575 5.311 15.9095" stroke="white" stroke-width="1.5" stroke-linecap="round" stroke-linejoin="round"/>
</svg>
