<svg width="156" height="86" viewBox="0 0 156 86" fill="none" xmlns="http://www.w3.org/2000/svg">
<g clip-path="url(#clip0_62_69)">
<path d="M30 0C17.7639 0 7.8445 9.91961 7.8445 22.1555C7.8445 34.3923 17.7641 44.311 30 44.311C42.2369 44.311 52.1555 34.3923 52.1555 22.1555C52.1555 9.92047 42.2369 0.00121163 29.9997 0.00121163L29.9998 0.00017309L30 0ZM40.1602 31.9548C39.7633 32.6056 38.9114 32.812 38.2605 32.4125C33.0587 29.2351 26.5103 28.5153 18.7983 30.2774C18.4412 30.3587 18.0664 30.2948 17.7564 30.0998C17.4463 29.9048 17.2264 29.5947 17.145 29.2376C17.1044 29.0609 17.099 28.8778 17.1293 28.699C17.1595 28.5202 17.2248 28.3491 17.3212 28.1955C17.4177 28.0419 17.5435 27.9088 17.6915 27.8039C17.8394 27.699 18.0066 27.6243 18.1835 27.5841C26.6234 25.6559 33.8625 26.486 39.7026 30.0552C40.3534 30.4546 40.5597 31.304 40.1602 31.9548ZM42.872 25.9221C42.3718 26.7348 41.3083 26.9915 40.4962 26.4914C34.5408 22.8309 25.4628 21.7707 18.4189 23.9089C17.5053 24.1848 16.5405 23.67 16.2632 22.758C15.988 21.8445 16.5031 20.8814 17.4152 20.6038C25.4612 18.1621 35.4641 19.3449 42.3032 23.5475C43.1154 24.0477 43.3721 25.1112 42.872 25.9223V25.9221ZM43.1048 19.6402C35.9642 15.3988 24.1831 15.0086 17.3657 17.0781C16.2709 17.4101 15.1131 16.792 14.7814 15.6972C14.4496 14.6019 15.067 13.4449 16.1627 13.1121C23.9886 10.7362 36.9987 11.1955 45.2196 16.0759C46.2066 16.6602 46.5292 17.9321 45.9445 18.9154C45.3626 19.9003 44.0873 20.2249 43.1058 19.6402H43.1048Z" fill="#1ED760"/>
</g>
<path d="M81.3425 18.3939C80.9643 16.5033 79.4046 14.0456 75.3398 14.0456C72.173 14.0456 69.5026 16.3143 69.5026 19.292C69.5026 21.8207 71.2277 23.5458 73.8982 24.0894L76.2378 24.562C77.5376 24.822 78.2702 25.5782 78.2702 26.5472C78.2702 27.7288 77.3013 28.6032 75.5525 28.6032C73.1892 28.6032 72.0312 27.1144 71.8894 25.4601L68.8645 26.2636C69.1244 28.6505 71.0859 31.51 75.5289 31.51C79.4282 31.51 81.5788 28.9104 81.5788 26.3345C81.5788 23.9712 79.9481 21.9861 76.8995 21.3953L74.5599 20.9463C73.331 20.7099 72.7402 19.9773 72.7402 19.0557C72.7402 17.9449 73.78 16.9287 75.3634 16.9287C77.4904 16.9287 78.2466 18.3703 78.412 19.292L81.3425 18.3939ZM86.893 35.6457V30.0212C87.4601 30.801 88.6418 31.4391 90.2488 31.4391C93.5337 31.4391 95.7315 28.8395 95.7315 25.3183C95.7315 21.8679 93.77 19.2684 90.3669 19.2684C88.6181 19.2684 87.3184 20.0482 86.7984 20.9463V19.5283H83.7498V35.6457H86.893ZM92.6357 25.3419C92.6357 27.4216 91.3595 28.6268 89.7525 28.6268C88.1455 28.6268 86.8457 27.3979 86.8457 25.3419C86.8457 23.2859 88.1455 22.0806 89.7525 22.0806C91.3595 22.0806 92.6357 23.2859 92.6357 25.3419ZM103.443 28.6505C101.907 28.6505 100.489 27.5161 100.489 25.3419C100.489 23.1441 101.907 22.0334 103.443 22.0334C104.979 22.0334 106.397 23.1441 106.397 25.3419C106.397 27.5397 104.979 28.6505 103.443 28.6505ZM103.443 19.1738C99.969 19.1738 97.3457 21.7498 97.3457 25.3419C97.3457 28.9104 99.969 31.51 103.443 31.51C106.917 31.51 109.54 28.9104 109.54 25.3419C109.54 21.7498 106.917 19.1738 103.443 19.1738ZM115.851 16.0543H113.015V17.685C113.015 18.7248 112.448 19.5283 111.219 19.5283H110.628V22.3169H112.731V27.7288C112.731 29.9739 114.149 31.3209 116.418 31.3209C117.34 31.3209 117.907 31.1555 118.19 31.0374V28.4378C118.025 28.485 117.6 28.5323 117.221 28.5323C116.323 28.5323 115.851 28.2015 115.851 27.1853V22.3169H118.19V19.5283H115.851V16.0543ZM124.003 31.1555V19.5283H120.86V31.1555H124.003ZM120.482 15.7235C120.482 16.7633 121.357 17.6377 122.42 17.6377C123.507 17.6377 124.358 16.7633 124.358 15.7235C124.358 14.6364 123.507 13.762 122.42 13.762C121.357 13.762 120.482 14.6364 120.482 15.7235ZM132.757 16.6451C133.277 16.6451 133.584 16.716 133.749 16.7633V14.1165C133.489 13.9983 132.851 13.8801 132.19 13.8801C129.614 13.8801 127.959 15.5817 127.959 18.2049V19.5283H126.021V22.2224H127.959V31.1555H131.126V22.2224H133.749V19.5283H131.126V18.2522C131.126 16.9524 132.048 16.6451 132.757 16.6451ZM140.387 35.7402L147.689 19.5283H144.333L141.474 26.3345L138.378 19.5283H134.857L139.796 29.6903L137.054 35.7402H140.387Z" fill="#EEEEEE"/>
<path d="M1.8 66.131V80.311H6.76C9.36 80.311 11.14 78.691 11.14 76.451C11.14 74.871 10.2 73.431 8.58 73.031C9.82 72.571 10.7 71.491 10.7 69.971C10.7 67.731 9.12 66.131 6.42 66.131H1.8ZM3.76 72.331V67.851H6.12C7.74 67.851 8.72 68.731 8.72 70.071C8.72 71.391 7.78 72.331 6.2 72.331H3.76ZM3.76 78.591V74.011H6.56C8.28 74.011 9.14 74.971 9.14 76.331C9.14 77.711 8.06 78.591 6.48 78.591H3.76ZM15.9336 84.331L22.1936 70.691H20.1736L17.2936 77.331L14.2936 70.691H12.1336L16.2736 79.251L13.8736 84.331H15.9336ZM28.4023 77.731C28.4023 79.251 29.6623 80.611 31.6223 80.611C33.3423 80.611 34.3023 79.691 34.7223 79.011C34.7223 79.711 34.7823 80.071 34.8223 80.311H36.6623C36.6223 80.071 36.5423 79.571 36.5423 78.731V73.911C36.5423 72.031 35.4223 70.391 32.5423 70.391C30.4623 70.391 28.8023 71.671 28.6023 73.511L30.4023 73.931C30.5223 72.811 31.2623 71.991 32.5823 71.991C34.0423 71.991 34.6623 72.771 34.6623 73.711C34.6623 74.051 34.5023 74.351 33.9223 74.431L31.3223 74.811C29.6623 75.051 28.4023 76.011 28.4023 77.731ZM31.8823 79.031C30.9223 79.031 30.3223 78.351 30.3223 77.631C30.3223 76.771 30.9223 76.311 31.7223 76.191L34.6623 75.751V76.191C34.6623 78.291 33.4223 79.031 31.8823 79.031ZM44.8111 70.591C44.7111 70.571 44.4511 70.531 44.1911 70.531C43.2111 70.531 42.0111 70.891 41.3111 72.371V70.691H39.4711V80.311H41.3511V75.491C41.3511 73.371 42.4111 72.531 43.9911 72.531C44.2511 72.531 44.5311 72.551 44.8111 72.591V70.591ZM47.8372 75.471C47.8372 73.491 48.9572 72.091 50.6772 72.091C52.3972 72.091 53.4372 73.451 53.4372 75.431C53.4372 77.411 52.3772 78.911 50.6572 78.911C48.8572 78.911 47.8372 77.451 47.8372 75.471ZM53.4572 79.011C53.4572 79.591 53.5172 80.091 53.5572 80.311H55.3772C55.3572 80.151 55.2772 79.451 55.2772 78.531V65.831H53.4172V72.051C53.0972 71.271 52.1772 70.431 50.4772 70.431C47.7572 70.431 45.9172 72.751 45.9172 75.471C45.9172 78.331 47.6572 80.571 50.4772 80.571C51.9772 80.571 52.9972 79.771 53.4572 78.851V79.011ZM60.875 84.331L67.135 70.691H65.115L62.235 77.331L59.235 70.691H57.075L61.215 79.251L58.815 84.331H60.875ZM75.1861 79.151C75.1861 79.551 75.2261 80.091 75.2661 80.311H77.0661C77.0261 79.971 76.9661 79.291 76.9661 78.531V70.691H75.0861V76.491C75.0861 77.951 74.3261 78.951 72.8061 78.951C71.2261 78.951 70.6261 77.791 70.6261 76.471V70.691H68.7461V76.751C68.7461 78.931 70.1061 80.611 72.3461 80.611C73.4661 80.611 74.6661 80.151 75.1861 79.151ZM82.6942 67.651H80.9742V69.211C80.9742 70.051 80.5342 70.691 79.4942 70.691H78.9742V72.391H80.8142V77.671C80.8142 79.411 81.8542 80.411 83.4942 80.411C84.1342 80.411 84.6142 80.291 84.7742 80.231V78.631C84.6142 78.671 84.2742 78.711 84.0342 78.711C83.0542 78.711 82.6942 78.271 82.6942 77.391V72.391H84.7742V70.691H82.6942V67.651ZM86.6836 77.731C86.6836 79.251 87.9436 80.611 89.9036 80.611C91.6236 80.611 92.5836 79.691 93.0036 79.011C93.0036 79.711 93.0636 80.071 93.1036 80.311H94.9436C94.9036 80.071 94.8236 79.571 94.8236 78.731V73.911C94.8236 72.031 93.7036 70.391 90.8236 70.391C88.7436 70.391 87.0836 71.671 86.8836 73.511L88.6836 73.931C88.8036 72.811 89.5436 71.991 90.8636 71.991C92.3236 71.991 92.9436 72.771 92.9436 73.711C92.9436 74.051 92.7836 74.351 92.2036 74.431L89.6036 74.811C87.9436 75.051 86.6836 76.011 86.6836 77.731ZM90.1636 79.031C89.2036 79.031 88.6036 78.351 88.6036 77.631C88.6036 76.771 89.2036 76.311 90.0036 76.191L92.9436 75.751V76.191C92.9436 78.291 91.7036 79.031 90.1636 79.031ZM99.6123 80.311V74.511C99.6123 73.071 100.512 72.071 101.852 72.071C103.292 72.071 103.892 73.031 103.892 74.271V80.311H105.772V74.491C105.772 73.111 106.672 72.071 107.992 72.071C109.412 72.071 110.032 73.011 110.032 74.271V80.311H111.892V74.071C111.892 71.551 110.252 70.411 108.572 70.411C107.352 70.411 106.112 70.851 105.352 72.231C104.832 70.991 103.672 70.411 102.472 70.411C101.352 70.411 100.152 70.911 99.5523 71.971V70.691H97.7523V80.311H99.6123ZM114.301 77.731C114.301 79.251 115.561 80.611 117.521 80.611C119.241 80.611 120.201 79.691 120.621 79.011C120.621 79.711 120.681 80.071 120.721 80.311H122.561C122.521 80.071 122.441 79.571 122.441 78.731V73.911C122.441 72.031 121.321 70.391 118.441 70.391C116.361 70.391 114.701 71.671 114.501 73.511L116.301 73.931C116.421 72.811 117.161 71.991 118.481 71.991C119.941 71.991 120.561 72.771 120.561 73.711C120.561 74.051 120.401 74.351 119.821 74.431L117.221 74.811C115.561 75.051 114.301 76.011 114.301 77.731ZM117.781 79.031C116.821 79.031 116.221 78.351 116.221 77.631C116.221 76.771 116.821 76.311 117.621 76.191L120.561 75.751V76.191C120.561 78.291 119.321 79.031 117.781 79.031Z" fill="white"/>
<path d="M144 82.811C149.523 82.811 154 78.334 154 72.811C154 67.288 149.523 62.811 144 62.811C138.477 62.811 134 67.288 134 72.811C134 78.334 138.477 82.811 144 82.811Z" stroke="white" stroke-width="1.5" stroke-linecap="round" stroke-linejoin="round"/>
<path d="M146.333 79.8111V77.9481C146.358 77.6381 146.315 77.3281 146.207 77.0351C146.098 76.742 145.928 76.4756 145.707 76.2541C147.8 76.0271 150 75.2541 150 71.7101C149.998 70.7992 149.639 69.9253 149 69.2761C149.304 68.4843 149.283 67.6042 148.94 66.8281C148.94 66.8281 148.153 66.6011 146.333 67.7891C144.804 67.386 143.196 67.386 141.667 67.7891C139.847 66.6011 139.06 66.8291 139.06 66.8291C138.718 67.6046 138.696 68.4838 139 69.2751C138.357 69.9291 137.997 70.8107 138 71.7281C138 75.2471 140.2 76.0191 142.293 76.2721C142.075 76.4917 141.906 76.7552 141.797 77.0451C141.689 77.3329 141.645 77.6406 141.667 77.9471V79.8111" stroke="white" stroke-width="1.5" stroke-linecap="round" stroke-linejoin="round"/>
<path d="M141.667 78.5129C139.667 79.1439 138 78.5129 137 76.5649" stroke="white" stroke-width="1.5" stroke-linecap="round" stroke-linejoin="round"/>
<defs>
<clipPath id="clip0_62_69">
<rect width="44.311" height="44.311" fill="white" transform="translate(7.8445)"/>
</clipPath>
</defs>
</svg>
