<svg width="45" height="45" viewBox="0 0 45 45" fill="none" xmlns="http://www.w3.org/2000/svg">
<g clip-path="url(#clip0_12_9)">
<path d="M22.1555 0C9.91943 0 0 9.91961 0 22.1555C0 34.3923 9.91961 44.311 22.1555 44.311C34.3924 44.311 44.311 34.3923 44.311 22.1555C44.311 9.92047 34.3924 0.00121163 22.1552 0.00121163L22.1553 0.00017309L22.1555 0ZM32.3157 31.9548C31.9188 32.6056 31.0669 32.812 30.416 32.4125C25.2142 29.235 18.6658 28.5153 10.9538 30.2774C10.5967 30.3587 10.2219 30.2948 9.91188 30.0998C9.60184 29.9048 9.38192 29.5947 9.30046 29.2376C9.25987 29.0609 9.25455 28.8778 9.2848 28.699C9.31505 28.5202 9.38027 28.3491 9.47674 28.1955C9.57321 28.0419 9.69902 27.9088 9.84698 27.8039C9.99494 27.699 10.1621 27.6243 10.339 27.5841C18.7789 25.6559 26.018 26.486 31.8581 30.0552C32.5089 30.4546 32.7152 31.304 32.3157 31.9548ZM35.0275 25.9221C34.5273 26.7348 33.4638 26.9915 32.6517 26.4914C26.6963 22.8309 17.6183 21.7707 10.5744 23.9089C9.66084 24.1848 8.69603 23.67 8.41874 22.758C8.14353 21.8445 8.65865 20.8814 9.57066 20.6038C17.6167 18.1621 27.6196 19.3449 34.4587 23.5475C35.2709 24.0477 35.5276 25.1112 35.0275 25.9223V25.9221ZM35.2603 19.6402C28.1197 15.3988 16.3386 15.0086 9.52115 17.0781C8.42636 17.4101 7.26856 16.792 6.93692 15.6972C6.60511 14.6019 7.22252 13.4449 8.31818 13.1121C16.1441 10.7362 29.1542 11.1955 37.3751 16.0759C38.3621 16.6602 38.6847 17.9321 38.1 18.9154C37.5181 19.9003 36.2428 20.2249 35.2613 19.6402H35.2603V19.6402Z" fill="#1ED760"/>
</g>
<defs>
<clipPath id="clip0_12_9">
<rect width="44.311" height="44.311" fill="white"/>
</clipPath>
</defs>
</svg>
